<svg xmlns="http://www.w3.org/2000/svg" xmlns:xlink="http://www.w3.org/1999/xlink" width="500" zoomAndPan="magnify" viewBox="0 0 375 374.999991" height="500" preserveAspectRatio="xMidYMid meet" version="1.0"><defs><g/><clipPath id="d15573e58a"><path d="M 28.550781 28.550781 L 346.550781 28.550781 L 346.550781 346.550781 L 28.550781 346.550781 Z M 28.550781 28.550781 " clip-rule="nonzero"/></clipPath></defs><rect x="-37.5" width="450" fill="#ffffff" y="-37.499999" height="449.999989" fill-opacity="1"/><rect x="-37.5" width="450" fill="#000000" y="-37.499999" height="449.999989" fill-opacity="1"/><g clip-path="url(#d15573e58a)"><path fill="#fdfdfd" d="M 336.613281 229.878906 C 332.582031 243.601562 326.429688 256.617188 318.792969 268.609375 C 312.488281 278.363281 305.320312 287.535156 297.265625 295.875 C 296.222656 297.015625 295.058594 298.035156 293.953125 299.109375 C 292.828125 300.164062 291.738281 301.257812 290.589844 302.285156 L 285.351562 306.84375 L 283.539062 308.28125 L 279.925781 311.171875 C 278.699219 312.109375 277.433594 312.992188 276.195312 313.910156 C 273.742188 315.789062 271.132812 317.4375 268.578125 319.175781 C 268.207031 319.425781 267.820312 319.683594 267.417969 319.953125 C 267.003906 320.203125 266.570312 320.464844 266.117188 320.734375 C 265.21875 321.273438 264.246094 321.855469 263.214844 322.472656 C 261.171875 323.753906 258.757812 324.960938 256.152344 326.347656 C 255.496094 326.683594 254.839844 327.054688 254.144531 327.386719 C 253.449219 327.710938 252.738281 328.039062 252.011719 328.375 C 250.5625 329.046875 249.0625 329.738281 247.511719 330.457031 C 244.335938 331.695312 241.027344 333.1875 237.414062 334.34375 C 223.15625 339.515625 205.359375 342.710938 187.5 342.785156 C 169.640625 342.710938 151.84375 339.515625 137.585938 334.34375 C 133.972656 333.1875 130.664062 331.695312 127.484375 330.457031 C 125.9375 329.738281 124.4375 329.046875 122.988281 328.375 C 122.261719 328.039062 121.550781 327.710938 120.855469 327.386719 C 120.160156 327.054688 119.503906 326.683594 118.847656 326.347656 C 116.242188 324.960938 113.824219 323.753906 111.785156 322.472656 C 110.753906 321.855469 109.78125 321.273438 108.882812 320.734375 C 108.433594 320.464844 107.996094 320.207031 107.582031 319.953125 C 107.179688 319.683594 106.792969 319.425781 106.421875 319.175781 C 96.722656 312.820312 87.605469 305.597656 79.320312 297.484375 C 70.582031 288.753906 62.945312 278.976562 56.207031 268.609375 C 48.570312 256.621094 42.417969 243.601562 38.386719 229.878906 C 34.191406 216.203125 32.25 201.851562 32.125 187.5 C 32.25 173.144531 34.191406 158.792969 38.386719 145.117188 C 42.417969 131.398438 48.570312 118.378906 56.207031 106.390625 C 62.507812 96.636719 69.679688 87.464844 77.734375 79.125 C 78.773438 77.984375 79.9375 76.964844 81.042969 75.890625 C 82.167969 74.832031 83.261719 73.742188 84.410156 72.710938 L 87.902344 69.675781 L 89.648438 68.15625 L 91.457031 66.71875 L 95.074219 63.828125 C 96.300781 62.890625 97.5625 62.003906 98.804688 61.089844 C 101.257812 59.210938 103.867188 57.558594 106.421875 55.824219 C 106.789062 55.574219 107.175781 55.316406 107.582031 55.042969 C 107.996094 54.792969 108.429688 54.535156 108.878906 54.261719 C 109.78125 53.722656 110.75 53.144531 111.785156 52.527344 C 113.824219 51.246094 116.242188 50.039062 118.847656 48.652344 C 119.503906 48.3125 120.160156 47.945312 120.855469 47.613281 C 121.550781 47.289062 122.261719 46.957031 122.984375 46.621094 C 124.433594 45.953125 125.9375 45.257812 127.484375 44.542969 C 130.660156 43.300781 133.972656 41.8125 137.585938 40.652344 C 151.84375 35.484375 169.640625 32.289062 187.5 32.214844 C 205.359375 32.289062 223.15625 35.484375 237.414062 40.652344 C 241.027344 41.8125 244.335938 43.300781 247.511719 44.542969 C 249.0625 45.257812 250.5625 45.953125 252.011719 46.621094 C 252.738281 46.957031 253.449219 47.289062 254.144531 47.609375 C 254.835938 47.941406 255.496094 48.3125 256.152344 48.652344 C 258.757812 50.035156 261.171875 51.246094 263.210938 52.527344 C 264.246094 53.144531 265.214844 53.722656 266.117188 54.261719 C 266.566406 54.53125 267 54.792969 267.417969 55.042969 C 267.820312 55.316406 268.207031 55.574219 268.574219 55.820312 C 278.277344 62.179688 287.390625 69.402344 295.675781 77.515625 C 304.417969 86.242188 312.054688 96.019531 318.792969 106.390625 C 326.429688 118.378906 332.582031 131.398438 336.613281 145.117188 C 340.808594 158.792969 342.75 173.144531 342.875 187.5 C 342.75 201.851562 340.808594 216.203125 336.613281 229.878906 Z M 346.445312 187.394531 L 346.441406 187.382812 C 346.3125 172.726562 344.339844 158.058594 340.070312 144.078125 C 335.964844 130.050781 329.675781 116.738281 321.835938 104.511719 L 318.066406 98.84375 C 318.066406 98.84375 316.976562 97.320312 315.34375 95.035156 C 313.769531 92.703125 311.359375 89.828125 309.0625 86.875 C 306.585938 84.066406 304.207031 81.171875 302.210938 79.195312 C 300.269531 77.167969 298.972656 75.820312 298.972656 75.820312 C 298.972656 75.820312 298.648438 75.484375 298.058594 74.917969 C 297.46875 74.347656 296.628906 73.535156 295.617188 72.5625 C 293.648438 70.554688 290.792969 68.136719 287.988281 65.660156 C 286.550781 64.464844 285.070312 63.320312 283.703125 62.21875 C 283.015625 61.671875 282.351562 61.144531 281.722656 60.644531 C 281.070312 60.171875 280.453125 59.730469 279.882812 59.320312 C 277.609375 57.675781 276.089844 56.582031 276.089844 56.582031 C 276.089844 56.582031 275.761719 56.3125 275.226562 55.964844 C 274.695312 55.613281 273.988281 55.140625 273.285156 54.667969 C 271.871094 53.722656 270.460938 52.777344 270.460938 52.777344 C 270.082031 52.523438 269.6875 52.253906 269.277344 51.976562 C 268.851562 51.71875 268.410156 51.453125 267.949219 51.175781 C 267.027344 50.621094 266.035156 50.023438 264.980469 49.390625 C 262.894531 48.074219 260.425781 46.832031 257.757812 45.414062 C 257.089844 45.066406 256.414062 44.6875 255.707031 44.347656 C 254.992188 44.015625 254.265625 43.675781 253.527344 43.332031 C 252.042969 42.644531 250.507812 41.933594 248.921875 41.199219 C 245.671875 39.921875 242.285156 38.398438 238.585938 37.207031 C 223.996094 31.90625 205.773438 28.625 187.5 28.550781 C 169.226562 28.625 151.003906 31.90625 136.410156 37.210938 C 132.714844 38.398438 129.324219 39.921875 126.074219 41.199219 C 124.488281 41.933594 122.953125 42.644531 121.472656 43.332031 C 120.730469 43.675781 120.003906 44.015625 119.289062 44.347656 C 118.582031 44.6875 117.910156 45.066406 117.238281 45.414062 C 114.570312 46.832031 112.101562 48.074219 110.015625 49.390625 C 108.960938 50.023438 107.972656 50.621094 107.046875 51.175781 C 106.589844 51.453125 106.144531 51.71875 105.722656 51.976562 C 105.308594 52.257812 104.914062 52.523438 104.535156 52.777344 C 104.535156 52.777344 103.125 53.722656 101.714844 54.667969 C 101.007812 55.140625 100.300781 55.613281 99.773438 55.96875 C 99.238281 56.3125 98.90625 56.582031 98.90625 56.582031 C 98.90625 56.582031 97.390625 57.675781 95.113281 59.320312 C 94.542969 59.730469 93.929688 60.171875 93.277344 60.644531 C 92.648438 61.144531 91.984375 61.671875 91.296875 62.21875 C 89.929688 63.320312 88.449219 64.464844 87.011719 65.660156 C 84.207031 68.136719 81.347656 70.554688 79.378906 72.5625 C 78.371094 73.535156 77.53125 74.347656 76.941406 74.917969 C 76.351562 75.484375 76.023438 75.820312 76.023438 75.820312 C 76.023438 75.820312 74.730469 77.167969 72.789062 79.195312 C 70.789062 81.171875 68.414062 84.066406 65.9375 86.875 C 63.636719 89.828125 61.226562 92.707031 59.65625 95.035156 C 58.023438 97.324219 56.933594 98.847656 56.933594 98.847656 L 53.164062 104.511719 C 45.324219 116.738281 39.035156 130.054688 34.925781 144.078125 C 30.65625 158.0625 28.6875 172.726562 28.554688 187.382812 L 28.554688 187.394531 L 28.550781 187.5 L 28.554688 187.605469 L 28.554688 187.617188 C 28.6875 202.273438 30.65625 216.9375 34.925781 230.921875 C 39.035156 244.945312 45.324219 258.261719 53.164062 270.488281 L 56.933594 276.152344 C 56.933594 276.152344 58.023438 277.675781 59.65625 279.960938 C 61.230469 282.296875 63.636719 285.167969 65.9375 288.125 C 68.414062 290.929688 70.789062 293.828125 72.789062 295.800781 C 74.730469 297.828125 76.023438 299.179688 76.023438 299.179688 C 76.023438 299.179688 76.351562 299.515625 76.941406 300.082031 C 77.53125 300.648438 78.371094 301.464844 79.378906 302.4375 C 81.347656 304.445312 84.207031 306.859375 87.011719 309.339844 C 88.449219 310.535156 89.929688 311.679688 91.296875 312.78125 C 91.984375 313.328125 92.648438 313.855469 93.277344 314.355469 C 93.929688 314.824219 94.542969 315.269531 95.113281 315.679688 C 97.390625 317.324219 98.90625 318.417969 98.90625 318.417969 C 98.90625 318.417969 99.238281 318.6875 99.773438 319.03125 C 100.304688 319.386719 101.007812 319.859375 101.714844 320.332031 C 103.125 321.277344 104.539062 322.222656 104.539062 322.222656 C 104.914062 322.476562 105.308594 322.742188 105.722656 323.019531 C 106.148438 323.28125 106.589844 323.546875 107.050781 323.824219 C 107.972656 324.378906 108.964844 324.972656 110.019531 325.609375 C 112.105469 326.921875 114.574219 328.164062 117.238281 329.585938 C 117.910156 329.933594 118.582031 330.3125 119.292969 330.652344 C 120.003906 330.984375 120.734375 331.324219 121.472656 331.667969 C 122.953125 332.355469 124.492188 333.066406 126.078125 333.800781 C 129.324219 335.078125 132.714844 336.601562 136.410156 337.789062 C 151.003906 343.089844 169.226562 346.375 187.5 346.445312 C 205.773438 346.375 223.996094 343.089844 238.589844 337.789062 C 242.285156 336.601562 245.675781 335.078125 248.921875 333.800781 C 250.507812 333.066406 252.042969 332.355469 253.527344 331.667969 C 254.265625 331.320312 254.996094 330.984375 255.707031 330.652344 C 256.417969 330.3125 257.089844 329.933594 257.761719 329.585938 C 260.425781 328.164062 262.894531 326.921875 264.980469 325.609375 C 266.035156 324.972656 267.027344 324.378906 267.949219 323.824219 C 268.410156 323.546875 268.851562 323.277344 269.277344 323.019531 C 269.691406 322.742188 270.085938 322.476562 270.460938 322.222656 C 270.460938 322.222656 271.871094 321.277344 273.285156 320.332031 C 273.992188 319.859375 274.695312 319.386719 275.226562 319.03125 C 275.761719 318.6875 276.089844 318.417969 276.089844 318.417969 C 276.089844 318.417969 277.609375 317.324219 279.882812 315.679688 C 280.453125 315.269531 281.070312 314.824219 281.722656 314.355469 C 282.351562 313.855469 283.015625 313.328125 283.703125 312.78125 C 285.070312 311.679688 286.550781 310.535156 287.988281 309.339844 C 290.792969 306.859375 293.648438 304.445312 295.617188 302.4375 C 296.628906 301.464844 297.46875 300.648438 298.058594 300.082031 C 298.648438 299.515625 298.972656 299.179688 298.972656 299.179688 C 298.972656 299.179688 300.269531 297.828125 302.210938 295.800781 C 304.207031 293.828125 306.585938 290.929688 309.0625 288.125 C 311.359375 285.167969 313.769531 282.292969 315.34375 279.960938 C 316.976562 277.675781 318.066406 276.152344 318.066406 276.152344 L 321.835938 270.488281 C 329.675781 258.261719 335.964844 244.945312 340.070312 230.921875 C 344.339844 216.9375 346.3125 202.273438 346.441406 187.617188 L 346.445312 187.605469 L 346.445312 187.394531 " fill-opacity="1" fill-rule="nonzero"/></g><g fill="#fdfdfd" fill-opacity="1"><g transform="translate(63.443922, 319.398879)"><g><path d="M 255.65625 0 L 174.015625 0 L 78.171875 -110.328125 L 78.171875 0 L 18.921875 0 L 18.921875 -260.0625 L 78.171875 -260.0625 L 78.171875 -153.828125 L 167.390625 -260.0625 L 239.265625 -260.0625 L 134.609375 -136.8125 Z M 255.65625 0 "/></g></g></g></svg>