<svg xmlns="http://www.w3.org/2000/svg" xmlns:xlink="http://www.w3.org/1999/xlink" width="500" zoomAndPan="magnify" viewBox="120 100 125 125" height="500" preserveAspectRatio="xMidYMid meet" version="1.0"><defs><g/><clipPath id="65d3d06ef5"><path d="M 5.257812 149.015625 L 370.941406 149.015625 L 370.941406 222.984375 L 5.257812 222.984375 Z M 5.257812 149.015625 " clip-rule="nonzero"/></clipPath><clipPath id="5ebec43a96"><path d="M 5.273438 149.015625 L 370.917969 149.015625 L 370.917969 222.972656 L 5.273438 222.972656 Z M 5.273438 149.015625 " clip-rule="nonzero"/></clipPath></defs><g clip-path="url(#65d3d06ef5)"><path fill="#000000" d="M 5.257812 149.015625 L 371.042969 149.015625 L 371.042969 222.984375 L 5.257812 222.984375 Z M 5.257812 149.015625 " fill-opacity="1" fill-rule="nonzero"/></g><g clip-path="url(#5ebec43a96)"><path stroke-linecap="butt" transform="matrix(0.75, 0, 0, 0.75, 5.274838, 149.017301)" fill="none" stroke-linejoin="miter" d="M -0.00186722 -0.00223415 L 487.524175 -0.00223415 L 487.524175 98.607141 L -0.00186722 98.607141 Z M -0.00186722 -0.00223415 " stroke="#ffffff" stroke-width="8" stroke-opacity="1" stroke-miterlimit="4"/></g><g fill="#ffffff" fill-opacity="1"><g transform="translate(10.962869, 200.453793)"><g><path d="M 18.25 -36.328125 L 15.890625 -21.34375 L 16 -21.34375 L 29.765625 -36.328125 L 41.46875 -36.328125 L 24.328125 -19.125 L 37.046875 0 L 24.8125 0 L 15.125 -15.75 L 15.03125 -15.75 L 12.53125 0 L 3.078125 0 L 8.8125 -36.328125 Z M 18.25 -36.328125 "/></g></g></g><g fill="#ffffff" fill-opacity="1"><g transform="translate(42.372201, 200.453793)"><g><path d="M 22.25 -36.328125 C 25.269531 -36.328125 27.976562 -35.660156 30.375 -34.328125 C 32.769531 -32.992188 34.648438 -31.15625 36.015625 -28.8125 C 37.378906 -26.46875 38.0625 -23.960938 38.0625 -21.296875 C 38.0625 -17.628906 37.070312 -14.148438 35.09375 -10.859375 C 33.113281 -7.566406 30.4375 -4.929688 27.0625 -2.953125 C 23.695312 -0.984375 20.179688 0 16.515625 0 L 3.078125 0 L 8.8125 -36.328125 Z M 13.78125 -8 L 15.609375 -8 C 19.429688 -8 22.472656 -9.128906 24.734375 -11.390625 C 26.992188 -13.648438 28.125 -16.582031 28.125 -20.1875 C 28.125 -22.625 27.363281 -24.585938 25.84375 -26.078125 C 24.320312 -27.578125 22.050781 -28.328125 19.03125 -28.328125 L 17 -28.328125 Z M 13.78125 -8 "/></g></g></g><g fill="#ffffff" fill-opacity="1"><g transform="translate(73.492492, 200.453793)"><g><path d="M 23.171875 -36.328125 C 26.441406 -36.328125 29.066406 -35.554688 31.046875 -34.015625 C 33.023438 -32.472656 34.015625 -30.253906 34.015625 -27.359375 C 34.015625 -24.273438 33.097656 -21.550781 31.265625 -19.1875 C 29.429688 -16.832031 27.085938 -15.398438 24.234375 -14.890625 L 33.28125 0 L 21.53125 0 L 14.84375 -13.96875 L 14.734375 -13.96875 L 12.53125 0 L 3.078125 0 L 8.8125 -36.328125 Z M 15.703125 -20.046875 L 17 -20.046875 C 19.21875 -20.046875 20.9375 -20.507812 22.15625 -21.4375 C 23.375 -22.363281 23.984375 -23.726562 23.984375 -25.53125 C 23.984375 -27.90625 22.023438 -29.09375 18.109375 -29.09375 L 17.15625 -29.09375 Z M 15.703125 -20.046875 "/></g></g></g><path stroke-linecap="butt" transform="matrix(0.903363, 0, 0, 0.903363, 116.404984, 152.575538)" fill="none" stroke-linejoin="miter" d="M 26.028271 12.793606 C 29.898357 12.793606 32.955509 13.667078 35.191078 15.409698 C 37.430971 17.147994 38.550918 19.703548 38.550918 23.080684 C 38.550918 25.744341 37.967162 28.481508 36.795326 31.29651 C 35.62349 34.107187 33.720878 36.226005 31.091814 37.64864 C 28.46275 39.062627 25.509377 39.737189 22.240343 39.668003 L 16.00064 39.668003 L 13.864525 52.999261 L 3.413131 52.999261 L 9.765261 12.793606 Z M 18.880503 21.216989 L 17.328144 31.24462 L 19.896671 31.24462 C 22.84572 31.24462 24.843462 30.70843 25.885575 29.640372 C 26.932012 28.572315 27.459554 26.972391 27.459554 24.836277 C 27.459554 23.526069 27.027142 22.596383 26.157994 22.051544 C 25.288847 21.493733 23.89648 21.216989 21.976572 21.216989 Z M 79.033316 29.004727 C 79.033316 32.874813 77.913369 36.896243 75.673476 41.060369 C 73.433582 45.220171 70.272652 48.467584 66.182036 50.811257 C 62.095744 53.154929 57.702439 54.326765 53.006446 54.326765 C 47.354824 54.326765 42.766934 52.666304 39.242777 49.341056 C 35.727269 46.015809 33.971677 41.639801 33.971677 36.204384 C 33.971677 31.724597 35.152161 27.595064 37.51313 23.807136 C 39.882747 20.014884 43.104215 17.009622 47.173211 14.787025 C 51.24653 12.564428 55.445249 11.45313 59.778016 11.45313 C 63.232987 11.45313 66.458779 12.201202 69.464042 13.693023 C 72.46498 15.184844 74.808652 17.260421 76.495058 19.91543 C 78.185789 22.56179 79.033316 25.592997 79.033316 29.004727 Z M 54.60637 44.199679 C 57.027877 44.199679 59.259122 43.533765 61.300106 42.206261 C 63.349738 40.870108 64.975607 39.144785 66.182036 37.038939 C 67.388465 34.920121 67.993841 32.827248 67.993841 30.760319 C 67.993841 28.200441 67.025239 26.029733 65.088034 24.252521 C 63.155153 22.470984 60.833101 21.584539 58.121879 21.584539 C 56.033329 21.584539 53.953428 22.155323 51.8865 23.301214 C 49.828219 24.438458 48.167758 25.964871 46.900791 27.88478 C 45.642473 29.804689 45.011151 31.932155 45.011151 34.275827 C 45.011151 37.160014 45.906244 39.533955 47.696429 41.397651 C 49.490938 43.26567 51.795693 44.199679 54.60637 44.199679 Z M 96.89625 12.793606 C 100.524185 12.793606 103.429993 13.649782 105.617997 15.357809 C 107.806001 17.061511 108.900003 19.508963 108.900003 22.704486 C 108.900003 26.12054 107.883835 29.138775 105.851499 31.750542 C 103.827812 34.36231 101.233341 35.953585 98.068086 36.515721 L 108.091393 52.999261 L 95.084444 52.999261 L 87.677229 37.531889 L 87.560478 37.531889 L 85.113027 52.999261 L 74.657308 52.999261 L 81.009438 12.793606 Z M 88.628535 30.812208 L 90.072791 30.812208 C 92.52889 30.812208 94.431502 30.297638 95.776303 29.264174 C 97.129752 28.23071 97.804315 26.721592 97.804315 24.732498 C 97.804315 22.103434 95.637931 20.788902 91.296516 20.788902 L 90.228459 20.788902 Z M 136.254377 12.793606 L 134.862011 21.649401 L 126.226746 21.649401 L 121.266982 52.999261 L 110.811263 52.999261 L 115.775351 21.649401 L 107.140087 21.649401 L 108.51948 12.793606 Z M 157.472826 12.793606 L 156.093433 21.649401 L 143.454034 21.649401 L 142.385977 28.364757 L 153.853539 28.364757 L 152.461173 37.220552 L 140.993611 37.220552 L 138.489946 52.999261 L 128.038551 52.999261 L 134.390682 12.793606 Z M 197.310931 29.004727 C 197.310931 32.874813 196.195308 36.896243 193.955415 41.060369 C 191.715521 45.220171 188.550266 48.467584 184.463974 50.811257 C 180.373358 53.154929 175.980054 54.326765 171.284061 54.326765 C 165.636762 54.326765 161.048872 52.666304 157.524716 49.341056 C 154.009207 46.015809 152.249291 41.639801 152.249291 36.204384 C 152.249291 31.724597 153.429776 27.595064 155.790744 23.807136 C 158.160361 20.014884 161.38183 17.009622 165.450825 14.787025 C 169.524145 12.564428 173.722864 11.45313 178.055631 11.45313 C 181.510601 11.45313 184.740718 12.201202 187.741656 13.693023 C 190.746919 15.184844 193.090591 17.260421 194.772673 19.91543 C 196.467727 22.56179 197.310931 25.592997 197.310931 29.004727 Z M 172.888309 44.199679 C 175.309815 44.199679 177.541061 43.533765 179.57772 42.206261 C 181.627353 40.870108 183.257545 39.144785 184.463974 37.038939 C 185.670403 34.920121 186.271456 32.827248 186.271456 30.760319 C 186.271456 28.200441 185.302853 26.029733 183.369972 24.252521 C 181.432767 22.470984 179.110716 21.584539 176.403817 21.584539 C 174.310944 21.584539 172.231043 22.155323 170.164114 23.301214 C 168.110158 24.438458 166.445372 25.964871 165.178406 27.88478 C 163.920087 29.804689 163.29309 31.932155 163.29309 34.275827 C 163.29309 37.160014 164.183858 39.533955 165.974043 41.397651 C 167.768553 43.26567 170.073308 44.199679 172.888309 44.199679 Z M 209.729799 12.793606 L 204.770035 44.14779 L 217.309979 44.14779 L 215.930585 52.999261 L 192.934923 52.999261 L 199.291377 12.793606 Z M 230.47692 12.793606 L 224.133438 52.999261 L 213.677719 52.999261 L 220.034173 12.793606 Z M 271.331192 29.004727 C 271.331192 32.874813 270.211245 36.896243 267.971352 41.060369 C 265.731458 45.220171 262.566203 48.467584 258.479911 50.811257 C 254.393619 53.154929 250.000315 54.326765 245.304322 54.326765 C 239.652699 54.326765 235.06481 52.666304 231.540653 49.341056 C 228.025145 46.015809 226.269552 41.639801 226.269552 36.204384 C 226.269552 31.724597 227.450037 27.595064 229.811005 23.807136 C 232.180622 20.014884 235.397767 17.009622 239.471086 14.787025 C 243.540082 12.564428 247.743125 11.45313 252.075892 11.45313 C 255.526538 11.45313 258.756655 12.201202 261.761917 13.693023 C 264.762856 15.184844 267.106528 17.260421 268.792934 19.91543 C 270.483665 22.56179 271.331192 25.592997 271.331192 29.004727 Z M 246.904246 44.199679 C 249.325752 44.199679 251.556998 43.533765 253.597982 42.206261 C 255.647614 40.870108 257.273482 39.144785 258.479911 37.038939 C 259.68634 34.920121 260.287393 32.827248 260.287393 30.760319 C 260.287393 28.200441 259.323115 26.029733 257.385909 24.252521 C 255.448704 22.470984 253.126653 21.584539 250.419754 21.584539 C 248.326881 21.584539 246.251304 22.155323 244.184376 23.301214 C 242.126095 24.438458 240.465634 25.964871 239.198667 27.88478 C 237.940348 29.804689 237.309027 31.932155 237.309027 34.275827 C 237.309027 37.160014 238.20412 39.533955 239.989981 41.397651 C 241.788814 43.26567 244.093569 44.199679 246.904246 44.199679 Z M 246.904246 44.199679 " stroke="#000000" stroke-width="5.399997" stroke-opacity="1" stroke-miterlimit="4"/><g fill="#ffffff" fill-opacity="1"><g transform="translate(116.404984, 200.453793)"><g><path d="M 23.515625 -36.328125 C 27.015625 -36.328125 29.773438 -35.535156 31.796875 -33.953125 C 33.816406 -32.378906 34.828125 -30.070312 34.828125 -27.03125 C 34.828125 -24.613281 34.296875 -22.132812 33.234375 -19.59375 C 32.179688 -17.0625 30.460938 -15.15625 28.078125 -13.875 C 25.703125 -12.59375 23.039062 -11.984375 20.09375 -12.046875 L 14.453125 -12.046875 L 12.53125 0 L 3.078125 0 L 8.8125 -36.328125 Z M 17.046875 -28.703125 L 15.65625 -19.65625 L 17.96875 -19.65625 C 20.632812 -19.65625 22.441406 -20.132812 23.390625 -21.09375 C 24.335938 -22.0625 24.8125 -23.507812 24.8125 -25.4375 C 24.8125 -26.625 24.414062 -27.460938 23.625 -27.953125 C 22.84375 -28.453125 21.582031 -28.703125 19.84375 -28.703125 Z M 17.046875 -28.703125 "/></g></g></g><g fill="#ffffff" fill-opacity="1"><g transform="translate(143.141378, 200.453793)"><g><path d="M 44.65625 -21.671875 C 44.65625 -18.171875 43.640625 -14.539062 41.609375 -10.78125 C 39.585938 -7.03125 36.726562 -4.09375 33.03125 -1.96875 C 29.34375 0.144531 25.378906 1.203125 21.140625 1.203125 C 16.035156 1.203125 11.894531 -0.296875 8.71875 -3.296875 C 5.539062 -6.296875 3.953125 -10.253906 3.953125 -15.171875 C 3.953125 -19.222656 5.019531 -22.957031 7.15625 -26.375 C 9.289062 -29.789062 12.195312 -32.503906 15.875 -34.515625 C 19.550781 -36.523438 23.347656 -37.53125 27.265625 -37.53125 C 30.378906 -37.53125 33.289062 -36.851562 36 -35.5 C 38.71875 -34.15625 40.835938 -32.285156 42.359375 -29.890625 C 43.890625 -27.492188 44.65625 -24.753906 44.65625 -21.671875 Z M 22.59375 -7.953125 C 24.78125 -7.953125 26.796875 -8.550781 28.640625 -9.75 C 30.484375 -10.957031 31.953125 -12.515625 33.046875 -14.421875 C 34.140625 -16.335938 34.6875 -18.226562 34.6875 -20.09375 C 34.6875 -22.40625 33.8125 -24.363281 32.0625 -25.96875 C 30.3125 -27.570312 28.210938 -28.375 25.765625 -28.375 C 23.878906 -28.375 22.003906 -27.859375 20.140625 -26.828125 C 18.273438 -25.804688 16.769531 -24.425781 15.625 -22.6875 C 14.488281 -20.957031 13.921875 -19.03125 13.921875 -16.90625 C 13.921875 -14.300781 14.726562 -12.15625 16.34375 -10.46875 C 17.96875 -8.789062 20.050781 -7.953125 22.59375 -7.953125 Z M 22.59375 -7.953125 "/></g></g></g><g fill="#ffffff" fill-opacity="1"><g transform="translate(180.765233, 200.453793)"><g><path d="M 23.171875 -36.328125 C 26.441406 -36.328125 29.066406 -35.554688 31.046875 -34.015625 C 33.023438 -32.472656 34.015625 -30.253906 34.015625 -27.359375 C 34.015625 -24.273438 33.097656 -21.550781 31.265625 -19.1875 C 29.429688 -16.832031 27.085938 -15.398438 24.234375 -14.890625 L 33.28125 0 L 21.53125 0 L 14.84375 -13.96875 L 14.734375 -13.96875 L 12.53125 0 L 3.078125 0 L 8.8125 -36.328125 Z M 15.703125 -20.046875 L 17 -20.046875 C 19.21875 -20.046875 20.9375 -20.507812 22.15625 -21.4375 C 23.375 -22.363281 23.984375 -23.726562 23.984375 -25.53125 C 23.984375 -27.90625 22.023438 -29.09375 18.109375 -29.09375 L 17.15625 -29.09375 Z M 15.703125 -20.046875 "/></g></g></g><g fill="#ffffff" fill-opacity="1"><g transform="translate(208.416944, 200.453793)"><g><path d="M 31.078125 -36.328125 L 29.8125 -28.328125 L 22.015625 -28.328125 L 17.53125 0 L 8.09375 0 L 12.578125 -28.328125 L 4.765625 -28.328125 L 6.015625 -36.328125 Z M 31.078125 -36.328125 "/></g></g></g><g fill="#ffffff" fill-opacity="1"><g transform="translate(228.986991, 200.453793)"><g><path d="M 29.671875 -36.328125 L 28.421875 -28.328125 L 17 -28.328125 L 16.046875 -22.25 L 26.390625 -22.25 L 25.140625 -14.265625 L 14.78125 -14.265625 L 12.53125 0 L 3.078125 0 L 8.8125 -36.328125 Z M 29.671875 -36.328125 "/></g></g></g><g fill="#ffffff" fill-opacity="1"><g transform="translate(249.990602, 200.453793)"><g><path d="M 44.65625 -21.671875 C 44.65625 -18.171875 43.640625 -14.539062 41.609375 -10.78125 C 39.585938 -7.03125 36.726562 -4.09375 33.03125 -1.96875 C 29.34375 0.144531 25.378906 1.203125 21.140625 1.203125 C 16.035156 1.203125 11.894531 -0.296875 8.71875 -3.296875 C 5.539062 -6.296875 3.953125 -10.253906 3.953125 -15.171875 C 3.953125 -19.222656 5.019531 -22.957031 7.15625 -26.375 C 9.289062 -29.789062 12.195312 -32.503906 15.875 -34.515625 C 19.550781 -36.523438 23.347656 -37.53125 27.265625 -37.53125 C 30.378906 -37.53125 33.289062 -36.851562 36 -35.5 C 38.71875 -34.15625 40.835938 -32.285156 42.359375 -29.890625 C 43.890625 -27.492188 44.65625 -24.753906 44.65625 -21.671875 Z M 22.59375 -7.953125 C 24.78125 -7.953125 26.796875 -8.550781 28.640625 -9.75 C 30.484375 -10.957031 31.953125 -12.515625 33.046875 -14.421875 C 34.140625 -16.335938 34.6875 -18.226562 34.6875 -20.09375 C 34.6875 -22.40625 33.8125 -24.363281 32.0625 -25.96875 C 30.3125 -27.570312 28.210938 -28.375 25.765625 -28.375 C 23.878906 -28.375 22.003906 -27.859375 20.140625 -26.828125 C 18.273438 -25.804688 16.769531 -24.425781 15.625 -22.6875 C 14.488281 -20.957031 13.921875 -19.03125 13.921875 -16.90625 C 13.921875 -14.300781 14.726562 -12.15625 16.34375 -10.46875 C 17.96875 -8.789062 20.050781 -7.953125 22.59375 -7.953125 Z M 22.59375 -7.953125 "/></g></g></g><g fill="#ffffff" fill-opacity="1"><g transform="translate(287.614465, 200.453793)"><g><path d="M 18.25 -36.328125 L 13.78125 -8 L 25.09375 -8 L 23.84375 0 L 3.078125 0 L 8.8125 -36.328125 Z M 18.25 -36.328125 "/></g></g></g><g fill="#ffffff" fill-opacity="1"><g transform="translate(306.353877, 200.453793)"><g><path d="M 18.25 -36.328125 L 12.53125 0 L 3.078125 0 L 8.8125 -36.328125 Z M 18.25 -36.328125 "/></g></g></g><g fill="#ffffff" fill-opacity="1"><g transform="translate(316.855434, 200.453793)"><g><path d="M 44.65625 -21.671875 C 44.65625 -18.171875 43.640625 -14.539062 41.609375 -10.78125 C 39.585938 -7.03125 36.726562 -4.09375 33.03125 -1.96875 C 29.34375 0.144531 25.378906 1.203125 21.140625 1.203125 C 16.035156 1.203125 11.894531 -0.296875 8.71875 -3.296875 C 5.539062 -6.296875 3.953125 -10.253906 3.953125 -15.171875 C 3.953125 -19.222656 5.019531 -22.957031 7.15625 -26.375 C 9.289062 -29.789062 12.195312 -32.503906 15.875 -34.515625 C 19.550781 -36.523438 23.347656 -37.53125 27.265625 -37.53125 C 30.378906 -37.53125 33.289062 -36.851562 36 -35.5 C 38.71875 -34.15625 40.835938 -32.285156 42.359375 -29.890625 C 43.890625 -27.492188 44.65625 -24.753906 44.65625 -21.671875 Z M 22.59375 -7.953125 C 24.78125 -7.953125 26.796875 -8.550781 28.640625 -9.75 C 30.484375 -10.957031 31.953125 -12.515625 33.046875 -14.421875 C 34.140625 -16.335938 34.6875 -18.226562 34.6875 -20.09375 C 34.6875 -22.40625 33.8125 -24.363281 32.0625 -25.96875 C 30.3125 -27.570312 28.210938 -28.375 25.765625 -28.375 C 23.878906 -28.375 22.003906 -27.859375 20.140625 -26.828125 C 18.273438 -25.804688 16.769531 -24.425781 15.625 -22.6875 C 14.488281 -20.957031 13.921875 -19.03125 13.921875 -16.90625 C 13.921875 -14.300781 14.726562 -12.15625 16.34375 -10.46875 C 17.96875 -8.789062 20.050781 -7.953125 22.59375 -7.953125 Z M 22.59375 -7.953125 "/></g></g></g></svg>