<svg xmlns="http://www.w3.org/2000/svg" xmlns:xlink="http://www.w3.org/1999/xlink" width="1000" zoomAndPan="magnify" viewBox="160 170 40 40" height="1000" preserveAspectRatio="xMidYMid meet" version="1.0"><defs><g/><clipPath id="5a43cc7341"><path d="M 167.988281 177.476562 L 258.992188 177.476562 L 258.992188 196.929688 L 167.988281 196.929688 Z M 167.988281 177.476562 " clip-rule="nonzero"/></clipPath></defs><g clip-path="url(#5a43cc7341)"><path fill="#000000" d="M 167.988281 177.476562 L 258.960938 177.476562 L 258.960938 196.929688 L 167.988281 196.929688 Z M 167.988281 177.476562 " fill-opacity="1" fill-rule="nonzero"/></g><g fill="#ffffff" fill-opacity="1"><g transform="translate(194.23839, 190.224993)"><g><path d="M 0.84375 1.96875 L 0.84375 -4.84375 L 1.5625 -4.84375 L 1.5625 -4.125 L 1.65625 -4.109375 C 2.007812 -4.660156 2.535156 -4.9375 3.234375 -4.9375 C 3.640625 -4.9375 3.992188 -4.84375 4.296875 -4.65625 C 4.597656 -4.476562 4.832031 -4.195312 5 -3.8125 C 5.164062 -3.4375 5.25 -2.972656 5.25 -2.421875 C 5.25 -1.867188 5.160156 -1.40625 4.984375 -1.03125 C 4.804688 -0.65625 4.5625 -0.375 4.25 -0.1875 C 3.945312 0 3.59375 0.09375 3.1875 0.09375 C 2.851562 0.09375 2.554688 0.0351562 2.296875 -0.078125 C 2.046875 -0.191406 1.832031 -0.378906 1.65625 -0.640625 L 1.5625 -0.625 L 1.5625 1.96875 Z M 3.03125 -0.546875 C 4.007812 -0.546875 4.5 -1.171875 4.5 -2.421875 C 4.5 -3.671875 4.007812 -4.296875 3.03125 -4.296875 C 2.738281 -4.296875 2.484375 -4.226562 2.265625 -4.09375 C 2.046875 -3.96875 1.875 -3.765625 1.75 -3.484375 C 1.625 -3.203125 1.5625 -2.847656 1.5625 -2.421875 C 1.5625 -1.992188 1.625 -1.640625 1.75 -1.359375 C 1.875 -1.078125 2.046875 -0.867188 2.265625 -0.734375 C 2.484375 -0.609375 2.738281 -0.546875 3.03125 -0.546875 Z M 3.03125 -0.546875 "/></g></g><g transform="translate(200.021593, 190.224993)"><g><path d="M 2.78125 0.09375 C 2.320312 0.09375 1.921875 0 1.578125 -0.1875 C 1.242188 -0.382812 0.984375 -0.671875 0.796875 -1.046875 C 0.617188 -1.429688 0.53125 -1.890625 0.53125 -2.421875 C 0.53125 -2.953125 0.617188 -3.40625 0.796875 -3.78125 C 0.984375 -4.164062 1.242188 -4.453125 1.578125 -4.640625 C 1.921875 -4.835938 2.320312 -4.9375 2.78125 -4.9375 C 3.238281 -4.9375 3.632812 -4.835938 3.96875 -4.640625 C 4.3125 -4.453125 4.570312 -4.164062 4.75 -3.78125 C 4.9375 -3.40625 5.03125 -2.953125 5.03125 -2.421875 C 5.03125 -1.890625 4.9375 -1.429688 4.75 -1.046875 C 4.570312 -0.671875 4.3125 -0.382812 3.96875 -0.1875 C 3.632812 0 3.238281 0.09375 2.78125 0.09375 Z M 2.78125 -0.546875 C 3.257812 -0.546875 3.628906 -0.695312 3.890625 -1 C 4.148438 -1.3125 4.28125 -1.785156 4.28125 -2.421875 C 4.28125 -3.066406 4.148438 -3.539062 3.890625 -3.84375 C 3.628906 -4.144531 3.257812 -4.296875 2.78125 -4.296875 C 2.300781 -4.296875 1.929688 -4.140625 1.671875 -3.828125 C 1.410156 -3.523438 1.28125 -3.054688 1.28125 -2.421875 C 1.28125 -1.785156 1.410156 -1.3125 1.671875 -1 C 1.929688 -0.695312 2.300781 -0.546875 2.78125 -0.546875 Z M 2.78125 -0.546875 "/></g></g><g transform="translate(205.585069, 190.224993)"><g><path d="M 0.84375 0 L 0.84375 -4.84375 L 1.53125 -4.84375 L 1.53125 -4.09375 L 1.625 -4.0625 C 1.84375 -4.613281 2.265625 -4.890625 2.890625 -4.890625 C 3.222656 -4.890625 3.472656 -4.832031 3.640625 -4.71875 L 3.453125 -4.109375 L 3.359375 -4.09375 C 3.179688 -4.175781 2.984375 -4.21875 2.765625 -4.21875 C 2.378906 -4.21875 2.082031 -4.070312 1.875 -3.78125 C 1.664062 -3.5 1.5625 -3.03125 1.5625 -2.375 L 1.5625 0 Z M 0.84375 0 "/></g></g><g transform="translate(209.32921, 190.224993)"><g><path d="M 3.28125 -0.765625 L 3.5 -0.25 C 3.382812 -0.132812 3.234375 -0.0507812 3.046875 0 C 2.867188 0.0625 2.671875 0.09375 2.453125 0.09375 C 1.523438 0.09375 1.0625 -0.375 1.0625 -1.3125 L 1.0625 -4.265625 L 0.21875 -4.265625 L 0.21875 -4.859375 L 1.0625 -4.859375 L 1.0625 -5.875 L 1.78125 -6 L 1.78125 -4.859375 L 3.34375 -4.859375 L 3.34375 -4.265625 L 1.78125 -4.265625 L 1.78125 -1.390625 C 1.78125 -0.828125 2.019531 -0.546875 2.5 -0.546875 C 2.769531 -0.546875 3 -0.617188 3.1875 -0.765625 Z M 3.28125 -0.765625 "/></g></g><g transform="translate(213.020616, 190.224993)"><g><path d="M 1.078125 0 L 1.078125 -4.265625 L 0.234375 -4.265625 L 0.234375 -4.859375 L 1.078125 -4.859375 C 1.023438 -5.066406 1 -5.265625 1 -5.453125 C 1 -5.765625 1.066406 -6.023438 1.203125 -6.234375 C 1.335938 -6.453125 1.519531 -6.613281 1.75 -6.71875 C 1.988281 -6.832031 2.265625 -6.890625 2.578125 -6.890625 C 3.066406 -6.890625 3.4375 -6.785156 3.6875 -6.578125 L 3.421875 -6.0625 L 3.328125 -6.046875 C 3.128906 -6.203125 2.878906 -6.28125 2.578125 -6.28125 C 2.296875 -6.28125 2.082031 -6.207031 1.9375 -6.0625 C 1.789062 -5.914062 1.71875 -5.707031 1.71875 -5.4375 C 1.71875 -5.269531 1.742188 -5.078125 1.796875 -4.859375 L 3.34375 -4.859375 L 3.34375 -4.265625 L 1.796875 -4.265625 L 1.796875 0 Z M 1.078125 0 "/></g></g><g transform="translate(216.474717, 190.224993)"><g><path d="M 2.78125 0.09375 C 2.320312 0.09375 1.921875 0 1.578125 -0.1875 C 1.242188 -0.382812 0.984375 -0.671875 0.796875 -1.046875 C 0.617188 -1.429688 0.53125 -1.890625 0.53125 -2.421875 C 0.53125 -2.953125 0.617188 -3.40625 0.796875 -3.78125 C 0.984375 -4.164062 1.242188 -4.453125 1.578125 -4.640625 C 1.921875 -4.835938 2.320312 -4.9375 2.78125 -4.9375 C 3.238281 -4.9375 3.632812 -4.835938 3.96875 -4.640625 C 4.3125 -4.453125 4.570312 -4.164062 4.75 -3.78125 C 4.9375 -3.40625 5.03125 -2.953125 5.03125 -2.421875 C 5.03125 -1.890625 4.9375 -1.429688 4.75 -1.046875 C 4.570312 -0.671875 4.3125 -0.382812 3.96875 -0.1875 C 3.632812 0 3.238281 0.09375 2.78125 0.09375 Z M 2.78125 -0.546875 C 3.257812 -0.546875 3.628906 -0.695312 3.890625 -1 C 4.148438 -1.3125 4.28125 -1.785156 4.28125 -2.421875 C 4.28125 -3.066406 4.148438 -3.539062 3.890625 -3.84375 C 3.628906 -4.144531 3.257812 -4.296875 2.78125 -4.296875 C 2.300781 -4.296875 1.929688 -4.140625 1.671875 -3.828125 C 1.410156 -3.523438 1.28125 -3.054688 1.28125 -2.421875 C 1.28125 -1.785156 1.410156 -1.3125 1.671875 -1 C 1.929688 -0.695312 2.300781 -0.546875 2.78125 -0.546875 Z M 2.78125 -0.546875 "/></g></g><g transform="translate(222.038193, 190.224993)"><g><path d="M 1.921875 0.09375 C 1.585938 0.09375 1.320312 -0.00390625 1.125 -0.203125 C 0.925781 -0.398438 0.828125 -0.691406 0.828125 -1.078125 L 0.828125 -6.796875 L 1.546875 -6.796875 L 1.546875 -1.125 C 1.546875 -0.914062 1.582031 -0.765625 1.65625 -0.671875 C 1.738281 -0.585938 1.859375 -0.546875 2.015625 -0.546875 C 2.117188 -0.546875 2.222656 -0.5625 2.328125 -0.59375 L 2.390625 -0.578125 L 2.46875 -0.015625 C 2.414062 0.015625 2.335938 0.0390625 2.234375 0.0625 C 2.140625 0.0820312 2.035156 0.09375 1.921875 0.09375 Z M 1.921875 0.09375 "/></g></g><g transform="translate(224.674912, 190.224993)"><g><path d="M 1.203125 -5.78125 C 1.046875 -5.78125 0.921875 -5.828125 0.828125 -5.921875 C 0.734375 -6.015625 0.6875 -6.132812 0.6875 -6.28125 C 0.6875 -6.4375 0.734375 -6.5625 0.828125 -6.65625 C 0.921875 -6.75 1.046875 -6.796875 1.203125 -6.796875 C 1.359375 -6.796875 1.484375 -6.75 1.578125 -6.65625 C 1.671875 -6.5625 1.71875 -6.4375 1.71875 -6.28125 C 1.71875 -6.132812 1.671875 -6.015625 1.578125 -5.921875 C 1.484375 -5.828125 1.359375 -5.78125 1.203125 -5.78125 Z M 0.84375 0 L 0.84375 -4.84375 L 1.5625 -4.84375 L 1.5625 0 Z M 0.84375 0 "/></g></g><g transform="translate(227.07872, 190.224993)"><g><path d="M 2.78125 0.09375 C 2.320312 0.09375 1.921875 0 1.578125 -0.1875 C 1.242188 -0.382812 0.984375 -0.671875 0.796875 -1.046875 C 0.617188 -1.429688 0.53125 -1.890625 0.53125 -2.421875 C 0.53125 -2.953125 0.617188 -3.40625 0.796875 -3.78125 C 0.984375 -4.164062 1.242188 -4.453125 1.578125 -4.640625 C 1.921875 -4.835938 2.320312 -4.9375 2.78125 -4.9375 C 3.238281 -4.9375 3.632812 -4.835938 3.96875 -4.640625 C 4.3125 -4.453125 4.570312 -4.164062 4.75 -3.78125 C 4.9375 -3.40625 5.03125 -2.953125 5.03125 -2.421875 C 5.03125 -1.890625 4.9375 -1.429688 4.75 -1.046875 C 4.570312 -0.671875 4.3125 -0.382812 3.96875 -0.1875 C 3.632812 0 3.238281 0.09375 2.78125 0.09375 Z M 2.78125 -0.546875 C 3.257812 -0.546875 3.628906 -0.695312 3.890625 -1 C 4.148438 -1.3125 4.28125 -1.785156 4.28125 -2.421875 C 4.28125 -3.066406 4.148438 -3.539062 3.890625 -3.84375 C 3.628906 -4.144531 3.257812 -4.296875 2.78125 -4.296875 C 2.300781 -4.296875 1.929688 -4.140625 1.671875 -3.828125 C 1.410156 -3.523438 1.28125 -3.054688 1.28125 -2.421875 C 1.28125 -1.785156 1.410156 -1.3125 1.671875 -1 C 1.929688 -0.695312 2.300781 -0.546875 2.78125 -0.546875 Z M 2.78125 -0.546875 "/></g></g></g><g fill="#000000" fill-opacity="1"><g transform="translate(116.030593, 192.374987)"><g><path d="M 1.734375 0 L 1.734375 -11.421875 L 3.078125 -11.421875 L 3.078125 -6.4375 L 3.3125 -6.4375 L 8 -11.421875 L 9.46875 -11.421875 L 9.46875 -11.234375 L 4.53125 -5.890625 L 9.859375 -0.203125 L 9.859375 0 L 8.328125 0 L 3.3125 -5.265625 L 3.078125 -5.265625 L 3.078125 0 Z M 1.734375 0 "/></g></g></g><g fill="#000000" fill-opacity="1"><g transform="translate(126.106257, 192.374987)"><g><path d="M 10.28125 0 L 8.84375 0 L 7.796875 -3.140625 L 2.921875 -3.140625 L 1.859375 0 L 0.453125 0 L 4.4375 -11.421875 L 6.296875 -11.421875 Z M 5.265625 -10.046875 L 3.296875 -4.265625 L 7.40625 -4.265625 L 5.453125 -10.046875 Z M 5.265625 -10.046875 "/></g></g></g><g fill="#000000" fill-opacity="1"><g transform="translate(136.83801, 192.374987)"><g><path d="M 5.421875 -11.421875 C 6.578125 -11.421875 7.570312 -11.210938 8.40625 -10.796875 C 9.238281 -10.390625 9.878906 -9.757812 10.328125 -8.90625 C 10.773438 -8.0625 11 -7 11 -5.71875 C 11 -4.4375 10.773438 -3.367188 10.328125 -2.515625 C 9.878906 -1.671875 9.238281 -1.039062 8.40625 -0.625 C 7.570312 -0.207031 6.578125 0 5.421875 0 L 1.734375 0 L 1.734375 -11.421875 Z M 5.296875 -1.140625 C 6.242188 -1.140625 7.03125 -1.285156 7.65625 -1.578125 C 8.28125 -1.878906 8.753906 -2.363281 9.078125 -3.03125 C 9.398438 -3.707031 9.5625 -4.601562 9.5625 -5.71875 C 9.5625 -6.832031 9.398438 -7.722656 9.078125 -8.390625 C 8.753906 -9.054688 8.28125 -9.535156 7.65625 -9.828125 C 7.03125 -10.128906 6.242188 -10.28125 5.296875 -10.28125 L 3.078125 -10.28125 L 3.078125 -1.140625 Z M 5.296875 -1.140625 "/></g></g></g><g fill="#000000" fill-opacity="1"><g transform="translate(148.97567, 192.374987)"><g><path d="M 3.078125 0 L 1.734375 0 L 1.734375 -11.421875 L 3.078125 -11.421875 Z M 3.078125 0 "/></g></g></g><g fill="#000000" fill-opacity="1"><g transform="translate(153.77919, 192.374987)"><g><path d="M 1.734375 0 L 1.734375 -11.421875 L 5.875 -11.421875 C 6.644531 -11.421875 7.289062 -11.296875 7.8125 -11.046875 C 8.332031 -10.796875 8.722656 -10.4375 8.984375 -9.96875 C 9.242188 -9.507812 9.375 -8.96875 9.375 -8.34375 C 9.375 -7.632812 9.195312 -7.046875 8.84375 -6.578125 C 8.488281 -6.117188 7.9375 -5.773438 7.1875 -5.546875 L 7.1875 -5.390625 C 7.550781 -5.242188 7.847656 -5.015625 8.078125 -4.703125 C 8.316406 -4.390625 8.535156 -3.921875 8.734375 -3.296875 L 9.796875 0 L 8.40625 0 L 7.265625 -3.5 C 7.128906 -3.90625 6.972656 -4.222656 6.796875 -4.453125 C 6.617188 -4.691406 6.394531 -4.863281 6.125 -4.96875 C 5.851562 -5.070312 5.507812 -5.125 5.09375 -5.125 L 3.078125 -5.125 L 3.078125 0 Z M 5.84375 -6.265625 C 6.5625 -6.265625 7.09375 -6.429688 7.4375 -6.765625 C 7.789062 -7.097656 7.96875 -7.601562 7.96875 -8.28125 C 7.96875 -8.957031 7.789062 -9.457031 7.4375 -9.78125 C 7.09375 -10.113281 6.5625 -10.28125 5.84375 -10.28125 L 3.078125 -10.28125 L 3.078125 -6.265625 Z M 5.84375 -6.265625 "/></g></g></g></svg>